<svg xmlns="http://www.w3.org/2000/svg" viewBox="0 0 64 64" role="img" aria-labelledby="title">
  <title id="title">Checkmate Quest</title>
  <defs>
    <linearGradient id="gold" x1="16" y1="9" x2="48" y2="55" gradientUnits="userSpaceOnUse">
      <stop stop-color="#fff4bf"/>
      <stop offset=".5" stop-color="#e7b65d"/>
      <stop offset="1" stop-color="#b77b2e"/>
    </linearGradient>
    <linearGradient id="edge" x1="20" y1="13" x2="43" y2="52" gradientUnits="userSpaceOnUse">
      <stop stop-color="#fff9df"/>
      <stop offset="1" stop-color="#5b3517"/>
    </linearGradient>
  </defs>
  <rect width="64" height="64" rx="14" fill="#201d1a"/>
  <rect x="3" y="3" width="58" height="58" rx="11" fill="none" stroke="#e7b65d" stroke-opacity=".5" stroke-width="2"/>
  <path d="M17 54h30l-3-7H20zm5-9h20l-2-7V29c0-7-3-12-9-15l-2-6-8 7 4 5c-5 4-7 9-7 16v2l-2 7zm4-19c2-4 6-5 10-2-3 0-6 1-8 4z" fill="url(#gold)" stroke="url(#edge)" stroke-linejoin="round" stroke-width="2"/>
  <circle cx="33.5" cy="22.5" r="1.8" fill="#201d1a"/>
  <path d="M25 47h16M22 54h22" fill="none" stroke="#fff4bf" stroke-linecap="round" stroke-opacity=".55" stroke-width="1.5"/>
</svg>
